<?xml version="1.0" encoding="UTF-8" standalone="no"?>
<svg
   xmlns:dc="http://purl.org/dc/elements/1.1/"
   xmlns:cc="http://creativecommons.org/ns#"
   xmlns:rdf="http://www.w3.org/1999/02/22-rdf-syntax-ns#"
   xmlns:svg="http://www.w3.org/2000/svg"
   xmlns="http://www.w3.org/2000/svg"
   viewBox="0 0 1370 975"
   height="975"
   width="1370"
   xml:space="preserve"
   version="1.1"
   id="svg4155"><metadata
     id="metadata4161"><rdf:RDF><cc:Work
         rdf:about=""><dc:format>image/svg+xml</dc:format><dc:type
           rdf:resource="http://purl.org/dc/dcmitype/StillImage" /><dc:title></dc:title></cc:Work></rdf:RDF></metadata><defs
     id="defs4159"><clipPath
       id="clipPath4171"
       clipPathUnits="userSpaceOnUse"><path
         id="path4173"
         d="M 0,780 1096,780 1096,0 0,0 0,780 Z" /></clipPath><clipPath
       id="clipPath4179"
       clipPathUnits="userSpaceOnUse"><path
         id="path4181"
         d="m 293.775,87.4237 540.723,0 0,-37.4981 -540.723,0 0,37.4981 z" /></clipPath><clipPath
       id="clipPath4183"
       clipPathUnits="userSpaceOnUse"><path
         id="path4185"
         d="m 834.498,68.675 c 0,10.354 -121.045,18.749 -270.362,18.749 -149.316,0 -270.361,-8.395 -270.361,-18.749 0,-10.355 121.045,-18.749 270.361,-18.749 149.317,0 270.362,8.394 270.362,18.749" /></clipPath><radialGradient
       id="radialGradient4187"
       spreadMethod="pad"
       gradientTransform="matrix(191.63351,0,0,-19.163351,564.13629,68.674667)"
       gradientUnits="userSpaceOnUse"
       r="1"
       cy="0"
       cx="0"
       fy="0"
       fx="0"><stop
         id="stop4189"
         offset="0"
         style="stop-opacity:1;stop-color:#999999" /><stop
         id="stop4191"
         offset="0.00508211"
         style="stop-opacity:1;stop-color:#999999" /><stop
         id="stop4193"
         offset="1"
         style="stop-opacity:1;stop-color:#c7e9f4" /></radialGradient><clipPath
       id="clipPath4221"
       clipPathUnits="userSpaceOnUse"><path
         id="path4223"
         d="M 585,184.961 647.646,144 823.538,387.357 705.474,454.822 585,184.961 Z" /></clipPath><clipPath
       id="clipPath4241"
       clipPathUnits="userSpaceOnUse"><path
         id="path4243"
         d="M 0,780 1096,780 1096,0 0,0 0,780 Z" /></clipPath><clipPath
       id="clipPath4249"
       clipPathUnits="userSpaceOnUse"><path
         id="path4251"
         d="m 585,454.822 185.445,0 0,-290.038 -185.445,0 0,290.038 z" /></clipPath><clipPath
       id="clipPath4273"
       clipPathUnits="userSpaceOnUse"><path
         id="path4275"
         d="m 293.517,435.859 201.919,-215.796 62.07,41.83 -155.978,256.576 -108.011,-82.61 z" /></clipPath><clipPath
       id="clipPath4293"
       clipPathUnits="userSpaceOnUse"><path
         id="path4295"
         d="M 0,780 1096,780 1096,0 0,0 0,780 Z" /></clipPath><clipPath
       id="clipPath4301"
       clipPathUnits="userSpaceOnUse"><path
         id="path4303"
         d="m 293.517,481.32 232.493,0 0,-261.257 -232.493,0 0,261.257 z" /></clipPath><clipPath
       id="clipPath4477"
       clipPathUnits="userSpaceOnUse"><path
         id="path4479"
         d="M 0,780 1096,780 1096,0 0,0 0,780 Z" /></clipPath></defs><g
     transform="matrix(1.25,0,0,-1.25,0,975)"
     id="g4163"><path
       id="path4165"
       style="fill:#c7e9f4;fill-opacity:1;fill-rule:nonzero;stroke:none"
       d="m 0,0 1096,0 0,780 L 0,780 0,0 Z" /><g
       id="g4167"><g
         clip-path="url(#clipPath4171)"
         id="g4169"><g
           id="g4175"><g
             id="g4177" /><g
             id="g4195"><g
               style="opacity:0.55000299"
               id="g4197"
               clip-path="url(#clipPath4179)"><g
                 id="g4199"><g
                   id="g4201"
                   clip-path="url(#clipPath4183)"><g
                     id="g4203"><g
                       id="g4205"><path
                         id="path4207"
                         style="fill:url(#radialGradient4187);stroke:none"
                         d="m 834.498,68.675 c 0,10.354 -121.045,18.749 -270.362,18.749 -149.316,0 -270.361,-8.395 -270.361,-18.749 0,-10.355 121.045,-18.749 270.361,-18.749 149.317,0 270.362,8.394 270.362,18.749" /></g></g></g></g></g></g></g><g
           transform="translate(647.0411,186.002)"
           id="g4209"><path
             id="path4211"
             style="fill:#000000;fill-opacity:1;fill-rule:nonzero;stroke:none"
             d="m 0,0 c 0,0 -0.647,0.301 -1.86,0.867 -1.208,0.55 -2.966,1.371 -5.207,2.23 -2.236,0.838 -4.995,1.76 -8.14,2.057 -3.103,0.299 -6.816,-0.109 -10.007,-1.98 -0.785,-0.475 -1.527,-1.036 -2.198,-1.69 l -0.482,-0.515 -0.061,-0.064 c -0.027,-0.031 0.128,0.163 0.047,0.06 l -0.032,-0.042 -0.128,-0.17 -0.258,-0.34 -0.519,-0.686 c -0.135,-0.21 -0.222,-0.394 -0.34,-0.591 -0.109,-0.198 -0.231,-0.379 -0.34,-0.589 l -0.301,-0.694 c -0.228,-0.451 -0.359,-0.956 -0.52,-1.453 -0.305,-1.002 -0.466,-2.085 -0.585,-3.199 -0.355,-4.524 0.718,-9.559 1.905,-14.778 0.149,-0.667 0.298,-1.337 0.448,-2.009 0.139,-0.664 0.278,-1.331 0.417,-2 0.254,-1.388 0.503,-2.79 0.687,-4.19 0.379,-2.81 0.602,-5.682 0.604,-8.588 0.024,-5.795 -0.942,-11.808 -3.436,-17.254 -1.238,-2.697 -2.887,-5.294 -4.816,-7.489 -1.962,-2.267 -4.191,-4.184 -6.571,-5.842 -4.754,-3.33 -9.967,-5.608 -15.061,-7.451 -5.102,-1.833 -10.109,-3.272 -14.76,-4.87 -4.654,-1.584 -8.964,-3.336 -12.7,-5.422 -3.719,-2.104 -6.843,-4.532 -9.236,-7.057 -2.428,-2.496 -4.109,-5.066 -5.214,-7.307 -1.104,-2.249 -1.638,-4.162 -1.918,-5.475 -0.147,-0.656 -0.193,-1.171 -0.256,-1.513 -0.054,-0.344 -0.081,-0.521 -0.081,-0.521 0,0 0.023,0.178 0.066,0.523 0.054,0.343 0.086,0.861 0.215,1.522 0.245,1.323 0.727,3.259 1.778,5.557 1.051,2.29 2.679,4.937 5.069,7.532 2.351,2.623 5.462,5.183 9.182,7.424 3.734,2.222 8.057,4.118 12.7,5.842 4.641,1.738 9.607,3.316 14.592,5.264 4.966,1.95 9.983,4.324 14.42,7.62 2.215,1.632 4.283,3.525 6.009,5.637 1.788,2.157 3.174,4.504 4.269,7.05 2.16,5.082 2.923,10.707 2.748,16.193 -0.078,2.748 -0.365,5.474 -0.801,8.145 -0.213,1.343 -0.484,2.647 -0.755,3.943 -0.158,0.665 -0.315,1.328 -0.472,1.988 -0.164,0.648 -0.327,1.294 -0.49,1.937 -1.318,5.214 -2.671,10.466 -2.419,15.853 0.164,2.7 0.768,5.33 2.129,7.785 0.172,0.305 0.351,0.636 0.525,0.911 l 0.5,0.7 0.248,0.347 0.124,0.173 0.031,0.043 0.111,0.144 0.082,0.093 0.652,0.737 c 0.905,0.94 1.906,1.739 2.947,2.407 2.094,1.323 4.324,2.1 6.462,2.534 1.071,0.221 2.126,0.336 3.152,0.409 0.519,0.017 1.005,0.05 1.533,0.038 0.261,-0.005 0.52,-0.01 0.777,-0.015 0.227,-0.012 0.451,-0.025 0.674,-0.037 C -11.009,9.47 -7.89,8.493 -5.409,7.646 -2.931,6.774 -1.085,5.968 0.172,5.438 1.415,4.9 2.078,4.613 2.078,4.613 L 0,0 Z" /></g><g
           transform="translate(705.4738,454.8224)"
           id="g4213"><path
             id="path4215"
             style="fill:#ffffff;fill-opacity:1;fill-rule:nonzero;stroke:none"
             d="M 0,0 118.064,-67.465 -57.827,-310.822 -120.474,-269.861 0,0 Z" /></g></g></g><g
       id="g4217"><g
         clip-path="url(#clipPath4221)"
         id="g4219"><g
           transform="translate(410.9651,265.6741)"
           id="g4225"><path
             id="path4227"
             style="fill:#ed1c24;fill-opacity:1;fill-rule:nonzero;stroke:none"
             d="M 0,0 -22.511,49.211 384.543,235.416 407.055,186.205 0,0 Z" /></g><g
           transform="translate(455.9876,167.2528)"
           id="g4229"><path
             id="path4231"
             style="fill:#ed1c24;fill-opacity:1;fill-rule:nonzero;stroke:none"
             d="M 0,0 -22.511,49.211 384.543,235.416 407.055,186.205 0,0 Z" /></g><g
           transform="translate(501.01,68.8315)"
           id="g4233"><path
             id="path4235"
             style="fill:#ed1c24;fill-opacity:1;fill-rule:nonzero;stroke:none"
             d="M 0,0 -22.511,49.211 384.543,235.416 407.055,186.205 0,0 Z" /></g></g></g><g
       id="g4237"><g
         clip-path="url(#clipPath4241)"
         id="g4239"><g
           id="g4245"><g
             id="g4247" /><g
             id="g4253"><g
               style="opacity:0.14999402"
               id="g4255"
               clip-path="url(#clipPath4249)"><g
                 id="g4257"
                 transform="translate(705.4738,454.8224)"><path
                   id="path4259"
                   style="fill:#000000;fill-opacity:1;fill-rule:nonzero;stroke:none"
                   d="M 0,0 -120.474,-269.861 -89.615,-290.038 64.971,-37.127 0,0 Z" /></g></g></g></g><g
           transform="translate(515.7427,283.8303)"
           id="g4261"><path
             id="path4263"
             style="fill:#000000;fill-opacity:1;fill-rule:nonzero;stroke:none"
             d="m 0,0 c 0,0 -0.346,-0.651 -0.995,-1.871 -0.196,-0.329 -0.261,-0.59 -0.384,-0.906 -0.122,-0.312 -0.255,-0.652 -0.398,-1.019 -0.149,-0.367 -0.235,-0.855 -0.372,-1.324 -0.134,-0.479 -0.278,-0.989 -0.335,-1.554 -0.399,-2.211 -0.471,-5.042 0.134,-8.285 0.592,-3.24 1.836,-6.869 3.751,-10.602 0.981,-1.853 2.085,-3.757 3.408,-5.613 0.632,-0.949 1.359,-1.852 2.073,-2.788 0.726,-0.882 1.572,-1.925 2.364,-2.813 3.225,-3.732 7.007,-7.524 10.773,-11.646 3.758,-4.123 7.578,-8.634 10.511,-13.919 0.371,-0.655 0.738,-1.315 1.056,-2.005 l 0.497,-1.024 0.124,-0.256 0.062,-0.128 0.087,-0.194 0.203,-0.509 c 0.539,-1.359 1.11,-2.681 1.535,-4.223 0.97,-2.975 1.453,-5.96 1.781,-8.999 0.515,-6.069 -0.036,-12.172 -1.515,-17.906 -1.437,-5.746 -3.632,-11.17 -6.369,-16.061 -2.722,-4.901 -5.912,-9.276 -9.215,-13.173 -3.308,-3.888 -6.711,-7.304 -9.962,-10.321 -3.256,-3.013 -6.355,-5.641 -9.147,-7.91 -2.795,-2.264 -5.26,-4.2 -7.308,-5.77 -4.104,-3.128 -6.449,-4.916 -6.449,-4.916 0,0 2.287,1.861 6.288,5.118 1.997,1.633 4.397,3.645 7.113,5.992 2.712,2.351 5.716,5.067 8.855,8.164 3.134,3.098 6.396,6.59 9.534,10.526 3.125,3.929 6.121,8.334 8.616,13.183 2.51,4.838 4.464,10.163 5.667,15.721 1.247,5.549 1.57,11.368 0.909,17.032 -0.39,2.805 -0.956,5.657 -1.897,8.242 -0.38,1.288 -1.01,2.645 -1.593,3.984 l -0.219,0.502 -0.213,0.402 -0.488,0.928 c -0.31,0.625 -0.671,1.225 -1.035,1.821 -2.863,4.8 -6.609,8.974 -10.413,12.886 -3.817,3.923 -7.711,7.579 -11.241,11.407 -0.923,0.977 -1.678,1.854 -2.549,2.845 -0.813,0.994 -1.635,1.958 -2.36,2.971 -1.508,1.982 -2.79,4.031 -3.94,6.049 -2.253,4.066 -3.812,8.13 -4.635,11.937 -0.837,3.803 -0.891,7.341 -0.47,10.214 0.061,0.724 0.216,1.398 0.369,2.032 0.16,0.64 0.252,1.221 0.451,1.794 0.204,0.572 0.394,1.102 0.567,1.587 0.178,0.476 0.342,0.956 0.497,1.227 0.609,1.24 0.935,1.902 0.935,1.902 L 0,0 Z" /></g><g
           transform="translate(293.5167,435.8593)"
           id="g4265"><path
             id="path4267"
             style="fill:#ffffff;fill-opacity:1;fill-rule:nonzero;stroke:none"
             d="M 0,0 108.011,82.61 263.989,-173.967 201.919,-215.796 0,0 Z" /></g></g></g><g
       id="g4269"><g
         clip-path="url(#clipPath4273)"
         id="g4271"><g
           transform="translate(353.4855,91.017)"
           id="g4277"><path
             id="path4279"
             style="fill:#ed1c24;fill-opacity:1;fill-rule:nonzero;stroke:none"
             d="m 0,0 -54.09,-1.639 -13.561,447.417 54.09,1.639 L 0,0 Z" /></g><g
           transform="translate(461.666,94.296)"
           id="g4281"><path
             id="path4283"
             style="fill:#ed1c24;fill-opacity:1;fill-rule:nonzero;stroke:none"
             d="m 0,0 -54.09,-1.639 -13.561,447.417 54.09,1.639 L 0,0 Z" /></g><g
           transform="translate(569.8466,97.5749)"
           id="g4285"><path
             id="path4287"
             style="fill:#ed1c24;fill-opacity:1;fill-rule:nonzero;stroke:none"
             d="m 0,0 -54.09,-1.639 -13.561,447.417 54.09,1.639 L 0,0 Z" /></g></g></g><g
       id="g4289"><g
         clip-path="url(#clipPath4293)"
         id="g4291"><g
           id="g4297"><g
             id="g4299" /><g
             id="g4305"><g
               style="opacity:0.14999402"
               id="g4307"
               clip-path="url(#clipPath4301)"><g
                 id="g4309"
                 transform="translate(293.5167,435.8593)"><path
                   id="path4311"
                   style="fill:#000000;fill-opacity:1;fill-rule:nonzero;stroke:none"
                   d="m 0,0 201.919,-215.796 30.574,20.604 L 59.439,45.461 0,0 Z" /></g></g></g></g><g
           transform="translate(996.6216,568.6208)"
           id="g4313"><path
             id="path4315"
             style="fill:#767bca;fill-opacity:1;fill-rule:nonzero;stroke:none"
             d="m 0,0 c 0,0 -0.206,0.18 -0.605,0.528 -0.199,0.174 -0.447,0.39 -0.741,0.647 -0.148,0.129 -0.307,0.268 -0.477,0.416 -0.082,0.071 -0.167,0.145 -0.255,0.221 -0.064,0.047 -0.13,0.096 -0.198,0.146 -0.936,0.756 -2.934,2.254 -5.615,3.633 -2.697,1.368 -6.211,2.8 -10.477,3.486 -2.123,0.383 -4.425,0.573 -6.838,0.505 -0.303,-0.004 -0.607,-0.009 -0.914,-0.013 -0.304,-0.025 -0.609,-0.05 -0.917,-0.076 -0.613,-0.062 -1.247,-0.07 -1.866,-0.187 -0.621,-0.104 -1.263,-0.165 -1.893,-0.296 -0.315,-0.068 -0.631,-0.137 -0.949,-0.206 l -0.48,-0.102 -0.241,-0.051 -0.121,-0.025 -0.061,-0.013 c -0.074,-0.02 0.443,0.144 0.189,0.064 -0.787,-0.233 -1.581,-0.468 -2.384,-0.705 -0.581,-0.208 -1.168,-0.417 -1.76,-0.628 -1.219,-0.483 -2.573,-1.085 -3.841,-1.769 -2.57,-1.375 -5.092,-3.128 -7.431,-5.245 -2.337,-2.116 -4.491,-4.594 -6.311,-7.379 -1.801,-2.777 -3.277,-5.92 -4.235,-9.149 -2.094,-6.85 -2.273,-14.724 -2.051,-23.232 0.179,-8.485 0.756,-17.627 -0.857,-27.045 -1.587,-9.295 -5.302,-18.147 -10.494,-25.651 -5.187,-7.516 -11.741,-13.864 -19.095,-18.384 -3.68,-2.276 -7.448,-4.095 -11.287,-5.57 -3.804,-1.473 -7.597,-2.592 -11.293,-3.548 -7.4,-1.891 -14.421,-3.114 -20.838,-4.39 -6.421,-1.251 -12.241,-2.574 -17.294,-4.128 -5.041,-1.568 -9.308,-3.352 -12.639,-5.179 -3.339,-1.812 -5.789,-3.559 -7.385,-4.836 -0.813,-0.621 -1.38,-1.165 -1.791,-1.5 -0.401,-0.345 -0.609,-0.523 -0.609,-0.523 0,0 0.195,0.191 0.572,0.563 0.386,0.362 0.919,0.946 1.69,1.623 1.513,1.389 3.854,3.312 7.111,5.378 3.247,2.079 7.46,4.188 12.477,6.131 5.021,1.926 10.84,3.67 17.194,5.362 6.347,1.716 13.242,3.411 20.271,5.728 7.027,2.324 14.163,5.311 20.482,9.888 6.339,4.51 11.8,10.608 15.923,17.548 4.137,6.95 6.796,14.82 7.603,22.847 0.829,7.95 -0.194,16.375 -0.994,25.033 -0.397,4.342 -0.739,8.78 -0.725,13.318 0.005,2.267 0.098,4.559 0.333,6.861 0.071,1.114 0.289,2.381 0.472,3.593 0.183,1.312 0.408,2.224 0.618,3.241 2.077,9.399 6.88,17.528 12.923,23.808 3.022,3.146 6.362,5.843 9.881,8.054 1.774,1.116 3.534,2.067 5.43,2.97 0.977,0.43 2.051,0.906 2.941,1.26 0.784,0.292 1.561,0.58 2.33,0.865 0.553,0.166 1.103,0.33 1.651,0.494 0.467,0.134 0.931,0.268 1.393,0.402 0.926,0.256 1.857,0.43 2.773,0.639 0.915,0.223 1.832,0.325 2.735,0.474 0.453,0.066 0.903,0.133 1.35,0.199 0.449,0.041 0.895,0.082 1.338,0.123 3.548,0.344 6.939,0.299 10.093,-0.033 6.332,-0.585 11.694,-2.295 15.933,-4.091 4.261,-1.847 7.277,-3.725 9.632,-5.399 0.141,-0.098 0.278,-0.193 0.411,-0.285 0.1,-0.075 0.197,-0.148 0.291,-0.219 0.18,-0.136 0.348,-0.264 0.503,-0.382 0.311,-0.237 0.573,-0.436 0.784,-0.596 0.422,-0.32 0.639,-0.486 0.639,-0.486 L 0,0 Z" /></g><g
           transform="translate(221.308,707.1565)"
           id="g4317"><path
             id="path4319"
             style="fill:#fccd21;fill-opacity:1;fill-rule:nonzero;stroke:none"
             d="m 0,0 c 0,0 -0.112,-0.965 -0.323,-2.774 -0.052,-0.452 -0.111,-0.957 -0.175,-1.513 -0.052,-0.528 -0.172,-1.239 -0.154,-1.697 -0.022,-1.037 -0.06,-2.23 -0.126,-3.577 0.005,-1.408 0.137,-3.082 0.194,-4.852 0.063,-0.89 0.224,-1.81 0.334,-2.772 0.148,-0.956 0.19,-1.967 0.428,-2.982 0.748,-4.097 2.027,-8.67 3.956,-13.511 2.048,-4.782 4.787,-9.79 8.404,-14.6 3.609,-4.807 8.096,-9.41 13.424,-13.272 0.679,-0.462 1.361,-0.926 2.046,-1.392 0.692,-0.454 1.352,-0.981 2.096,-1.356 1.459,-0.79 2.913,-1.693 4.408,-2.435 l 1.268,-0.612 1.151,-0.52 c 0.741,-0.349 1.585,-0.69 2.403,-1.036 1.654,-0.681 3.356,-1.33 5.1,-1.957 6.963,-2.522 14.571,-4.705 22.093,-7.897 l 1.407,-0.61 0.351,-0.153 0.408,-0.188 0.658,-0.312 1.332,-0.638 1.433,-0.735 c 1.888,-0.982 3.651,-2.03 5.406,-3.175 3.474,-2.305 6.751,-4.959 9.593,-8.067 2.82,-3.122 5.217,-6.69 6.805,-10.599 0.745,-1.98 1.392,-3.955 1.713,-6.047 l 0.227,-1.366 c 0.067,-0.482 0.101,-1.057 0.148,-1.578 l 0.121,-1.593 -0.014,-1.504 c -0.055,-3.998 -0.807,-7.786 -1.832,-11.3 -1.032,-3.52 -2.333,-6.793 -3.665,-9.903 -2.649,-6.213 -5.555,-11.814 -7.358,-17.197 -1.781,-5.325 -2.504,-10.606 -2.448,-15.215 0.119,-4.62 1.113,-8.62 2.639,-11.583 1.513,-2.988 3.485,-4.835 4.869,-5.986 0.726,-0.535 1.332,-0.884 1.719,-1.15 0.395,-0.257 0.599,-0.39 0.599,-0.39 0,0 -0.213,0.117 -0.625,0.342 -0.407,0.236 -1.042,0.54 -1.818,1.025 -1.479,1.051 -3.646,2.777 -5.456,5.76 -1.821,2.953 -3.185,7.055 -3.678,11.878 -0.422,4.832 -0.111,10.325 1.361,16.19 1.474,5.809 3.974,11.664 6.084,17.911 2.106,6.2 4.014,12.886 3.598,19.49 l -0.078,1.232 -0.18,1.136 c -0.066,0.388 -0.092,0.733 -0.182,1.158 l -0.331,1.345 c -0.351,1.548 -1.001,3.086 -1.683,4.564 -1.473,2.938 -3.574,5.612 -6.061,7.978 -2.512,2.353 -5.43,4.375 -8.542,6.113 -0.779,0.432 -1.583,0.833 -2.379,1.24 -0.812,0.365 -1.636,0.795 -2.432,1.109 l -1.198,0.506 -1.338,0.52 -0.68,0.261 -0.17,0.065 -0.085,0.033 c 0.006,-0.004 -0.134,0.054 -0.007,-10e-4 l -0.327,0.113 -1.304,0.451 c -6.993,2.365 -14.496,3.923 -22.099,6.021 -1.9,0.524 -3.808,1.087 -5.711,1.705 -0.955,0.319 -1.89,0.617 -2.888,0.991 l -1.466,0.536 -1.311,0.513 c -1.928,0.776 -3.73,1.693 -5.585,2.539 -0.939,0.4 -1.783,0.952 -2.665,1.439 -0.873,0.502 -1.743,1.002 -2.609,1.501 -6.817,4.18 -12.687,9.331 -17.528,14.834 -4.851,5.508 -8.681,11.367 -11.658,17.089 -2.861,5.783 -4.91,11.392 -6.26,16.526 -0.387,1.269 -0.572,2.548 -0.849,3.76 -0.241,1.22 -0.521,2.39 -0.695,3.532 -0.281,2.308 -0.591,4.375 -0.75,6.358 -0.092,2.049 -0.154,3.889 -0.197,5.49 -0.04,0.864 0.019,1.367 0.032,1.954 0.022,0.56 0.042,1.068 0.06,1.522 0.071,1.82 0.109,2.791 0.109,2.791 L 0,0 Z" /></g><g
           transform="translate(368.97,665.2191)"
           id="g4321"><path
             id="path4323"
             style="fill:#00b170;fill-opacity:1;fill-rule:nonzero;stroke:none"
             d="m 0,0 c 0,0 -0.331,-0.476 -0.953,-1.368 -0.155,-0.223 -0.329,-0.472 -0.52,-0.747 -0.095,-0.137 -0.195,-0.28 -0.299,-0.429 -0.072,-0.115 -0.147,-0.235 -0.224,-0.36 -0.321,-0.504 -0.688,-1.082 -1.1,-1.73 -0.837,-1.48 -1.854,-3.301 -2.777,-5.525 -0.974,-2.203 -1.857,-4.803 -2.577,-7.723 -1.45,-5.822 -2.093,-13.061 -0.753,-20.636 0.091,-0.471 0.183,-0.944 0.275,-1.419 l 0.138,-0.716 0.017,-0.09 c 0.044,-0.146 -0.051,0.149 -0.036,0.1 l 0.013,-0.05 0.052,-0.2 0.104,-0.401 c 0.138,-0.534 0.277,-1.07 0.417,-1.609 l 0.21,-0.795 0.211,-0.7 c 0.285,-0.937 0.539,-1.866 0.911,-2.898 0.338,-1.009 0.689,-2.027 1.085,-3.057 1.525,-4.117 3.347,-8.374 5.077,-12.801 1.73,-4.423 3.344,-9.07 4.344,-13.88 1.017,-4.782 1.309,-9.821 0.705,-14.438 -0.616,-4.692 -1.907,-8.818 -3.138,-12.647 -1.247,-3.825 -2.45,-7.32 -3.294,-10.644 -0.818,-3.249 -1.27,-6.364 -1.356,-9.109 -0.069,-2.752 0.213,-5.164 0.695,-7.097 0.476,-1.938 1.133,-3.385 1.61,-4.355 0.535,-0.944 0.82,-1.447 0.82,-1.447 0,0 -0.349,0.465 -1.004,1.337 -0.601,0.909 -1.457,2.287 -2.205,4.218 -0.751,1.925 -1.37,4.392 -1.668,7.28 -0.278,2.896 -0.232,6.162 0.195,9.746 0.426,3.508 1.203,7.28 1.937,11.162 0.727,3.873 1.408,7.951 1.408,11.932 -0.006,4.049 -0.771,8.039 -2.165,12.042 -1.384,3.995 -3.329,7.938 -5.504,11.906 -2.17,3.971 -4.535,7.979 -6.741,12.181 -0.56,1.039 -1.094,2.111 -1.618,3.19 -0.533,1.039 -1.045,2.223 -1.554,3.373 l -0.381,0.865 -0.319,0.786 c -0.208,0.516 -0.414,1.03 -0.62,1.543 l -0.154,0.384 -0.077,0.192 -0.019,0.048 -0.065,0.198 -0.037,0.109 -0.292,0.871 c -0.193,0.582 -0.386,1.161 -0.577,1.738 -2.924,9.301 -3.346,18.621 -2.456,26.452 0.438,3.926 1.159,7.513 2.064,10.631 0.852,3.136 1.889,5.797 2.782,7.979 0.495,1.129 1,2.168 1.419,3.055 0.107,0.223 0.209,0.437 0.308,0.643 0.084,0.162 0.165,0.317 0.242,0.466 0.155,0.296 0.295,0.565 0.421,0.806 0.502,0.965 0.77,1.479 0.77,1.479 L 0,0 Z" /></g><g
           transform="translate(109.6705,528.5914)"
           id="g4325"><path
             id="path4327"
             style="fill:#da5e71;fill-opacity:1;fill-rule:nonzero;stroke:none"
             d="m 0,0 c 0,0 0.132,-0.711 0.378,-2.045 0.132,-0.876 0.264,-0.99 0.362,-1.44 0.01,-0.343 0.389,-1.1 0.656,-1.848 0.703,-1.491 1.756,-3.325 3.531,-5.272 1.761,-1.944 4.23,-3.982 7.353,-5.806 3.118,-1.817 6.869,-3.456 11.037,-4.578 0.524,-0.13 1.05,-0.26 1.581,-0.391 l 0.399,-0.1 0.1,-0.025 0.05,-0.013 c -0.319,0.046 -0.055,0.006 -0.111,0.014 l 0.233,-0.044 0.938,-0.175 c 1.233,-0.222 2.596,-0.508 3.668,-0.636 2.221,-0.349 4.766,-0.632 7.322,-0.812 5.134,-0.382 10.594,-0.435 16.25,-0.405 5.656,0.021 11.508,0.135 17.449,-0.046 5.937,-0.185 11.948,-0.636 17.832,-1.751 1.397,-0.265 2.773,-0.505 4.268,-0.902 1.448,-0.381 2.944,-0.669 4.313,-1.127 1.385,-0.437 2.768,-0.841 4.121,-1.297 1.337,-0.499 2.665,-0.993 3.981,-1.484 5.207,-2.101 10.009,-4.594 14.35,-7.257 4.343,-2.672 8.141,-5.625 11.521,-8.453 3.292,-2.941 6.198,-5.737 8.516,-8.448 0.588,-0.667 1.157,-1.313 1.707,-1.936 0.514,-0.653 1.009,-1.283 1.485,-1.888 0.475,-0.603 0.93,-1.182 1.365,-1.735 0.427,-0.558 0.794,-1.122 1.164,-1.64 0.723,-1.047 1.39,-1.963 1.928,-2.789 0.517,-0.84 0.956,-1.554 1.313,-2.133 0.71,-1.155 1.089,-1.772 1.089,-1.772 0,0 -0.44,0.575 -1.265,1.651 -0.412,0.537 -0.92,1.199 -1.517,1.978 -0.616,0.762 -1.371,1.602 -2.189,2.559 -0.416,0.473 -0.833,0.988 -1.309,1.494 -0.484,0.5 -0.99,1.022 -1.518,1.567 -0.526,0.544 -1.073,1.109 -1.641,1.696 -0.6,0.554 -1.222,1.128 -1.864,1.721 -2.528,2.407 -5.636,4.832 -9.088,7.333 -3.54,2.388 -7.455,4.833 -11.832,6.94 -4.374,2.099 -9.128,3.971 -14.162,5.425 -1.267,0.328 -2.543,0.66 -3.829,0.994 -1.294,0.292 -2.609,0.53 -3.92,0.802 -1.318,0.298 -2.61,0.394 -3.918,0.606 -1.26,0.214 -2.697,0.319 -4.119,0.438 -5.391,0.459 -10.974,0.313 -16.587,-0.09 -11.239,-0.83 -22.734,-2.716 -34.153,-3.037 -2.86,-0.088 -5.64,-0.081 -8.61,0.077 -1.531,0.049 -2.716,0.18 -4.012,0.278 l -0.95,0.078 -0.237,0.02 -0.428,0.056 -0.53,0.073 c -0.707,0.099 -1.41,0.197 -2.107,0.295 -5.562,0.892 -10.712,2.495 -15.333,4.571 -4.617,2.081 -8.694,4.698 -12.015,7.631 -3.333,2.92 -5.845,6.164 -7.605,9.077 -0.825,1.532 -1.565,2.749 -2.126,4.294 -0.558,1.401 -1.074,2.835 -1.18,3.299 -0.382,1.302 -0.586,1.996 -0.586,1.996 L 0,0 Z" /></g><g
           transform="translate(143.1684,625.1188)"
           id="g4329"><path
             id="path4331"
             style="fill:#e65735;fill-opacity:1;fill-rule:nonzero;stroke:none"
             d="m 0,0 c 0,0 -0.198,-0.254 -0.569,-0.731 -0.186,-0.238 -0.415,-0.532 -0.684,-0.878 -0.068,-0.086 -0.138,-0.176 -0.21,-0.269 l -0.11,-0.141 -0.04,-0.063 c -0.06,-0.084 -0.124,-0.173 -0.192,-0.268 -0.071,-0.094 -0.151,-0.192 -0.242,-0.295 -0.089,-0.112 -0.194,-0.175 -0.295,-0.4 -0.204,-0.381 -0.441,-0.794 -0.703,-1.244 -0.195,-0.483 -0.42,-0.999 -0.667,-1.555 -0.162,-0.589 -0.394,-1.2 -0.567,-1.876 -0.296,-1.363 -0.605,-2.92 -0.616,-4.663 -0.085,-1.736 0.073,-3.637 0.401,-5.618 0.309,-1.992 0.927,-4.027 1.661,-6.086 0.419,-1.004 0.817,-2.047 1.338,-3.029 0.246,-0.502 0.485,-1.014 0.78,-1.487 l 0.423,-0.729 0.212,-0.367 0.106,-0.184 0.053,-0.092 0.013,-0.023 c 0.021,-0.028 -0.141,0.161 -0.064,0.069 l 0.034,-0.05 c 0.728,-1.055 1.483,-2.181 2.123,-3.009 0.63,-0.901 1.442,-1.821 2.188,-2.73 1.568,-1.779 3.239,-3.466 4.951,-5.037 1.732,-1.546 3.463,-3.021 5.192,-4.334 1.712,-1.334 3.396,-2.535 4.963,-3.637 3.149,-2.184 5.863,-3.921 7.761,-5.134 1.904,-1.209 2.992,-1.9 2.992,-1.9 0,0 -1.218,0.424 -3.349,1.166 -2.131,0.748 -5.174,1.819 -8.805,3.251 -1.811,0.727 -3.776,1.532 -5.831,2.477 -2.066,0.919 -4.205,2.015 -6.411,3.215 -2.191,1.229 -4.42,2.617 -6.626,4.183 -1.085,0.824 -2.176,1.594 -3.281,2.565 -1.173,0.969 -2.063,1.809 -3.025,2.679 l -1.577,1.658 c -0.516,0.519 -0.972,1.08 -1.434,1.64 -0.958,1.1 -1.787,2.285 -2.633,3.463 -1.589,2.41 -3.039,4.909 -4.128,7.517 -1.108,2.596 -1.99,5.245 -2.524,7.889 -0.606,2.624 -0.805,5.252 -0.859,7.717 -0.003,1.235 0.096,2.44 0.158,3.586 0.152,1.149 0.32,2.247 0.488,3.282 0.241,1.027 0.49,1.992 0.727,2.887 0.093,0.425 0.3,0.933 0.466,1.384 0.179,0.457 0.348,0.894 0.51,1.307 0.17,0.413 0.332,0.804 0.484,1.171 0.066,0.15 0.129,0.295 0.191,0.435 0.049,0.106 0.096,0.21 0.142,0.309 0.183,0.398 0.339,0.737 0.465,1.011 0.253,0.549 0.387,0.842 0.387,0.842 L 0,0 Z" /></g><g
           transform="translate(932.5438,664.1459)"
           id="g4333"><path
             id="path4335"
             style="fill:#fccd21;fill-opacity:1;fill-rule:nonzero;stroke:none"
             d="m 0,0 c 0,0 -0.602,-0.182 -1.732,-0.525 -0.565,-0.171 -1.262,-0.382 -2.081,-0.63 -0.647,-0.232 -1.392,-0.5 -2.226,-0.799 -0.811,-0.252 -1.793,-0.692 -2.858,-1.154 -0.529,-0.236 -1.095,-0.452 -1.658,-0.727 -0.561,-0.283 -1.142,-0.576 -1.742,-0.879 -2.418,-1.193 -5.027,-2.798 -7.793,-4.708 -2.736,-1.952 -5.549,-4.306 -8.334,-7.035 -2.75,-2.759 -5.402,-5.941 -7.817,-9.483 -2.4,-3.546 -4.587,-7.457 -6.25,-11.678 l -0.085,-0.195 -0.043,-0.098 -0.021,-0.049 c -0.014,-0.039 0.049,0.168 0.013,0.054 l -0.16,-0.437 -0.32,-0.875 c -0.204,-0.572 -0.448,-1.198 -0.62,-1.727 -0.342,-1.078 -0.719,-2.1 -1.037,-3.269 -0.691,-2.263 -1.249,-4.62 -1.801,-6.991 -2.121,-9.527 -3.408,-19.671 -5.815,-29.067 -0.137,-0.587 -0.313,-1.17 -0.468,-1.75 -0.164,-0.599 -0.328,-1.195 -0.491,-1.788 -0.362,-1.115 -0.668,-2.179 -1.067,-3.305 -0.799,-2.283 -1.638,-4.412 -2.59,-6.44 -1.877,-4.062 -4.062,-7.703 -6.412,-10.804 -2.355,-3.095 -4.841,-5.676 -7.31,-7.628 -0.598,-0.506 -1.245,-0.919 -1.83,-1.356 -0.297,-0.213 -0.589,-0.422 -0.875,-0.627 -0.303,-0.181 -0.6,-0.358 -0.892,-0.532 -0.581,-0.343 -1.139,-0.672 -1.672,-0.986 -0.558,-0.266 -1.091,-0.519 -1.596,-0.759 -0.989,-0.518 -1.951,-0.803 -2.757,-1.105 -0.408,-0.139 -0.775,-0.294 -1.127,-0.388 -0.355,-0.089 -0.676,-0.169 -0.965,-0.24 -1.146,-0.285 -1.758,-0.436 -1.758,-0.436 0,0 0.589,0.222 1.692,0.639 0.275,0.103 0.581,0.219 0.918,0.347 0.334,0.133 0.679,0.329 1.062,0.513 0.755,0.39 1.649,0.772 2.551,1.391 0.459,0.288 0.942,0.592 1.449,0.911 0.476,0.362 0.974,0.742 1.493,1.138 0.257,0.197 0.52,0.399 0.788,0.604 0.25,0.229 0.505,0.462 0.764,0.699 0.509,0.485 1.07,0.941 1.582,1.49 2.114,2.121 4.162,4.828 6.019,7.981 1.852,3.158 3.483,6.791 4.777,10.765 0.66,1.981 1.205,4.075 1.669,6.148 0.241,1.05 0.436,2.226 0.659,3.35 0.08,0.538 0.161,1.079 0.242,1.623 0.081,0.563 0.18,1.122 0.244,1.696 1.228,9.121 1.304,19.094 2.337,29.428 0.286,2.585 0.585,5.185 1.052,7.795 0.191,1.284 0.505,2.666 0.772,4.004 0.138,0.677 0.285,1.233 0.428,1.854 l 0.214,0.907 0.107,0.453 0.173,0.587 c 1.372,5.208 3.395,10.15 5.756,14.728 2.374,4.573 5.109,8.785 8.047,12.532 2.972,3.716 6.08,7.017 9.182,9.841 3.132,2.783 6.177,5.185 9.056,7.074 0.719,0.476 1.414,0.937 2.086,1.381 0.678,0.436 1.363,0.809 2.006,1.191 1.291,0.754 2.464,1.451 3.692,2.031 1.173,0.584 2.273,1.133 3.155,1.548 0.784,0.343 1.451,0.634 1.991,0.871 1.082,0.472 1.659,0.725 1.659,0.725 L 0,0 Z" /></g><g
           transform="translate(797.0629,583.0609)"
           id="g4337"><path
             id="path4339"
             style="fill:#da5e71;fill-opacity:1;fill-rule:nonzero;stroke:none"
             d="M 0,0 C 0,0 -0.327,-0.491 -0.94,-1.412 -1.093,-1.643 -1.264,-1.9 -1.453,-2.183 -1.542,-2.319 -1.635,-2.461 -1.732,-2.609 -1.783,-2.704 -1.835,-2.804 -1.89,-2.907 c -0.218,-0.437 -0.503,-0.821 -0.827,-1.46 -0.639,-1.392 -1.436,-3.117 -1.986,-5.349 -0.602,-2.203 -1.074,-4.856 -1.229,-7.922 -0.18,-3.057 -0.098,-6.503 0.277,-10.225 0.371,-3.723 1.03,-7.716 1.908,-11.88 0.428,-2.052 0.946,-4.264 1.457,-6.474 0.511,-2.238 1.028,-4.503 1.549,-6.786 1.019,-4.621 1.99,-9.415 2.601,-14.34 0.604,-4.922 0.841,-9.98 0.4,-14.962 -0.195,-2.488 -0.627,-4.951 -1.177,-7.342 -0.276,-1.196 -0.665,-2.363 -0.992,-3.523 l -0.098,-0.325 -0.075,-0.197 -0.15,-0.393 -0.298,-0.783 c -0.198,-0.522 -0.395,-1.041 -0.592,-1.558 -0.495,-1.096 -0.987,-2.183 -1.473,-3.26 -0.525,-1.001 -1.045,-1.993 -1.56,-2.973 -0.548,-0.947 -1.09,-1.884 -1.626,-2.81 -0.558,-0.9 -1.109,-1.788 -1.652,-2.665 -2.208,-3.463 -4.357,-6.62 -6.217,-9.592 -1.869,-2.965 -3.471,-5.735 -4.645,-8.306 -0.641,-1.268 -1.084,-2.509 -1.539,-3.651 -0.441,-1.145 -0.704,-2.239 -1.02,-3.214 -0.456,-1.983 -0.773,-3.574 -0.828,-4.674 -0.109,-1.101 -0.167,-1.688 -0.167,-1.688 0,0 -0.016,0.59 -0.046,1.696 -0.084,1.115 0.029,2.74 0.239,4.823 0.194,1.021 0.325,2.183 0.626,3.409 0.314,1.22 0.614,2.565 1.103,3.94 0.874,2.796 2.157,5.843 3.668,9.082 1.502,3.244 3.254,6.677 4.965,10.3 0.415,0.907 0.835,1.825 1.261,2.756 0.393,0.932 0.791,1.876 1.193,2.83 0.357,0.958 0.718,1.926 1.083,2.904 0.294,0.947 0.591,1.903 0.891,2.867 0.13,0.537 0.261,1.077 0.392,1.619 l 0.197,0.815 0.099,0.408 0.05,0.205 c 0.032,0.117 -0.03,-0.102 -0.022,-0.062 l 0.008,0.048 0.015,0.097 c 0.146,1.031 0.356,2.048 0.459,3.092 0.204,2.089 0.31,4.207 0.204,6.357 -0.166,4.295 -0.918,8.659 -2.017,12.999 -1.106,4.343 -2.56,8.667 -4.095,12.961 -0.791,2.165 -1.576,4.313 -2.351,6.435 -0.79,2.145 -1.568,4.233 -2.328,6.435 -3.024,8.667 -5.167,17.362 -5.707,25.397 -0.305,4 -0.164,7.832 0.301,11.268 0.4,3.439 1.257,6.468 2.049,8.934 0.433,1.277 0.998,2.532 1.426,3.558 0.114,0.26 0.223,0.511 0.327,0.751 0.085,0.174 0.167,0.341 0.245,0.5 0.151,0.304 0.289,0.581 0.412,0.829 0.492,0.99 0.755,1.519 0.755,1.519 L 0,0 Z" /></g><g
           transform="translate(734.6154,673.2177)"
           id="g4341"><path
             id="path4343"
             style="fill:#27c3de;fill-opacity:1;fill-rule:nonzero;stroke:none"
             d="m 0,0 c 0,0 -0.209,-0.564 -0.6,-1.622 -0.176,-0.488 -0.393,-1.09 -0.648,-1.798 -0.247,-0.666 -0.518,-1.501 -0.825,-2.425 -1.203,-3.702 -2.752,-9.083 -3.892,-15.734 -0.569,-3.323 -1.039,-6.96 -1.335,-10.836 -0.031,-0.485 -0.062,-0.973 -0.094,-1.464 l -0.048,-0.74 c -0.01,0.37 -0.003,0.074 -0.006,0.144 l -10e-4,-0.05 -0.002,-0.098 -0.005,-0.199 -0.009,-0.397 c -0.024,-1.06 -0.048,-2.134 -0.073,-3.219 -0.024,-1.085 -0.048,-2.181 -0.073,-3.287 0.025,-1.034 0.051,-2.078 0.076,-3.131 0.024,-1.057 0.048,-2.123 0.072,-3.197 0.031,-1.082 0.132,-2.219 0.195,-3.338 0.142,-2.25 0.27,-4.532 0.517,-6.849 0.403,-4.623 0.966,-9.351 1.55,-14.105 1.181,-9.505 2.507,-19.119 3.271,-28.219 0.159,-2.284 0.361,-4.515 0.473,-6.713 0.081,-2.201 0.161,-4.353 0.238,-6.449 -0.02,-2.099 -0.04,-4.141 -0.059,-6.116 0.01,-0.983 -0.053,-1.954 -0.127,-2.906 -0.066,-0.95 -0.131,-1.882 -0.194,-2.795 -0.063,-0.91 -0.126,-1.802 -0.186,-2.673 -0.119,-0.868 -0.235,-1.715 -0.348,-2.542 -0.231,-1.645 -0.45,-3.205 -0.656,-4.671 -0.659,-2.897 -1.144,-5.421 -1.695,-7.461 -1.266,-4.027 -1.989,-6.328 -1.989,-6.328 0,0 0.432,2.361 1.189,6.494 0.293,2.073 0.461,4.619 0.753,7.497 0.023,1.452 0.047,2.996 0.073,4.625 0.011,0.81 0.022,1.642 0.033,2.493 -0.046,0.853 -0.094,1.725 -0.142,2.616 -0.048,0.888 -0.098,1.795 -0.148,2.719 -0.041,0.922 -0.095,1.861 -0.225,2.816 -0.217,1.904 -0.442,3.872 -0.673,5.896 -0.325,2.012 -0.66,4.08 -1.002,6.193 -0.371,2.108 -0.838,4.257 -1.264,6.438 -1.834,8.727 -4.294,17.959 -6.659,27.336 -1.176,4.69 -2.343,9.413 -3.354,14.141 -0.547,2.346 -0.981,4.722 -1.425,7.069 -0.214,1.181 -0.459,2.324 -0.645,3.518 -0.177,1.204 -0.353,2.399 -0.528,3.585 -0.172,1.19 -0.343,2.37 -0.513,3.54 -0.112,1.103 -0.223,2.196 -0.333,3.277 -0.109,1.08 -0.217,2.149 -0.324,3.205 l -0.04,0.395 -0.02,0.197 -0.01,0.098 -0.005,0.05 c -0.004,0.102 10e-4,-0.161 -0.01,0.242 l -0.049,0.834 c -0.033,0.554 -0.066,1.105 -0.098,1.652 -0.211,4.38 -0.193,8.543 -0.017,12.385 0.352,7.69 1.353,14.082 2.208,18.523 0.22,1.11 0.41,2.094 0.619,2.996 0.194,0.862 0.36,1.594 0.494,2.188 0.259,1.098 0.396,1.684 0.396,1.684 L 0,0 Z" /></g><g
           transform="translate(258.3804,732.0161)"
           id="g4345"><path
             id="path4347"
             style="fill:#767bca;fill-opacity:1;fill-rule:nonzero;stroke:none"
             d="M 0,0 -12.093,-24.876 -24.186,0 -12.093,12.093 0,0 Z" /></g><g
           transform="translate(340.3179,701.3004)"
           id="g4349"><path
             id="path4351"
             style="fill:#fccd21;fill-opacity:1;fill-rule:nonzero;stroke:none"
             d="M 0,0 -19.504,-19.613 -22.881,7.84 -7.52,15.36 0,0 Z" /></g><g
           transform="translate(184.1062,692.6099)"
           id="g4353"><path
             id="path4355"
             style="fill:#da5e71;fill-opacity:1;fill-rule:nonzero;stroke:none"
             d="M 0,0 -1.326,-27.628 -22.234,-9.52 -15.877,6.357 0,0 Z" /></g><g
           transform="translate(265.6174,558.1064)"
           id="g4357"><path
             id="path4359"
             style="fill:#27c3de;fill-opacity:1;fill-rule:nonzero;stroke:none"
             d="M 0,0 5.286,-27.15 -19.33,-14.537 -16.934,2.397 0,0 Z" /></g><g
           transform="translate(420.8026,618.362)"
           id="g4361"><path
             id="path4363"
             style="fill:#da5e71;fill-opacity:1;fill-rule:nonzero;stroke:none"
             d="m 0,0 -22.078,-16.662 0.534,27.655 16.269,5.275 L 0,0 Z" /></g><g
           transform="translate(47.1098,614.371)"
           id="g4365"><path
             id="path4367"
             style="fill:#e65735;fill-opacity:1;fill-rule:nonzero;stroke:none"
             d="M 0,0 24.99,-11.856 0.23,-24.185 -11.977,-12.208 0,0 Z" /></g><g
           transform="translate(172.8056,548.735)"
           id="g4369"><path
             id="path4371"
             style="fill:#fccd21;fill-opacity:1;fill-rule:nonzero;stroke:none"
             d="M 0,0 16.641,-22.094 -11.014,-21.533 -16.273,-5.26 0,0 Z" /></g><g
           transform="translate(352.4111,530.3911)"
           id="g4373"><path
             id="path4375"
             style="fill:#00b170;fill-opacity:1;fill-rule:nonzero;stroke:none"
             d="M 0,0 -12.093,-24.876 -24.186,0 -12.093,12.093 0,0 Z" /></g><g
           transform="translate(797.8681,668.0367)"
           id="g4377"><path
             id="path4379"
             style="fill:#767bca;fill-opacity:1;fill-rule:nonzero;stroke:none"
             d="M 0,0 -12.093,-24.876 -24.186,0 -12.093,12.093 0,0 Z" /></g><g
           transform="translate(753.8018,487.7113)"
           id="g4381"><path
             id="path4383"
             style="fill:#fccd21;fill-opacity:1;fill-rule:nonzero;stroke:none"
             d="M 0,0 -12.093,-24.876 -24.186,0 -12.093,12.093 0,0 Z" /></g><g
           transform="translate(993.2458,669.3552)"
           id="g4385"><path
             id="path4387"
             style="fill:#da5e71;fill-opacity:1;fill-rule:nonzero;stroke:none"
             d="M 0,0 -26.766,-6.974 -15.717,18.383 1.333,17.05 0,0 Z" /></g><g
           transform="translate(1034.5897,537.6879)"
           id="g4389"><path
             id="path4391"
             style="fill:#27c3de;fill-opacity:1;fill-rule:nonzero;stroke:none"
             d="M 0,0 -27.323,4.306 -7.06,23.133 8.037,15.096 0,0 Z" /></g><g
           transform="translate(684.5958,612.3818)"
           id="g4393"><path
             id="path4395"
             style="fill:#da5e71;fill-opacity:1;fill-rule:nonzero;stroke:none"
             d="m 0,0 -0.015,-27.66 -21.743,17.097 5.597,16.16 L 0,0 Z" /></g><g
           transform="translate(859.4655,726.7495)"
           id="g4397"><path
             id="path4399"
             style="fill:#e65735;fill-opacity:1;fill-rule:nonzero;stroke:none"
             d="M 0,0 2.159,-27.576 -20.861,-12.24 -16.55,4.31 0,0 Z" /></g><g
           transform="translate(838.5126,569.9771)"
           id="g4401"><path
             id="path4403"
             style="fill:#fccd21;fill-opacity:1;fill-rule:nonzero;stroke:none"
             d="m 0,0 -23.475,-14.628 2.996,27.497 16.674,3.805 L 0,0 Z" /></g><g
           transform="translate(891.9327,505.2141)"
           id="g4405"><path
             id="path4407"
             style="fill:#00b170;fill-opacity:1;fill-rule:nonzero;stroke:none"
             d="m 0,0 -24.368,-13.086 4.76,27.247 16.885,2.723 L 0,0 Z" /></g><g
           transform="translate(853.3269,630.2783)"
           id="g4409"><path
             id="path4411"
             style="fill:#27c3de;fill-opacity:1;fill-rule:nonzero;stroke:none"
             d="m 0,0 -7.79,7.897 -10.922,-1.94 5.103,9.85 -5.22,9.787 10.944,-1.81 7.696,7.99 1.66,-10.968 9.977,-4.85 L 1.53,10.987 0,0 Z" /></g><g
           transform="translate(692.3269,680.2783)"
           id="g4413"><path
             id="path4415"
             style="fill:#fccd21;fill-opacity:1;fill-rule:nonzero;stroke:none"
             d="m 0,0 -7.79,7.897 -10.922,-1.94 5.103,9.85 -5.22,9.787 10.944,-1.81 7.696,7.99 1.66,-10.968 9.977,-4.85 L 1.53,10.987 0,0 Z" /></g><g
           transform="translate(947.3269,602.2783)"
           id="g4417"><path
             id="path4419"
             style="fill:#00b170;fill-opacity:1;fill-rule:nonzero;stroke:none"
             d="m 0,0 -7.79,7.897 -10.922,-1.94 5.103,9.85 -5.22,9.787 10.944,-1.81 7.696,7.99 1.66,-10.968 9.977,-4.85 L 1.53,10.987 0,0 Z" /></g><g
           transform="translate(717.5788,490.3398)"
           id="g4421"><path
             id="path4423"
             style="fill:#767bca;fill-opacity:1;fill-rule:nonzero;stroke:none"
             d="m 0,0 -10.936,1.859 -7.731,-7.956 -1.612,10.976 -9.955,4.894 9.94,4.925 1.579,10.98 7.755,-7.932 10.93,1.892 L -5.177,9.811 0,0 Z" /></g><g
           transform="translate(851.0865,403.5978)"
           id="g4425"><path
             id="path4427"
             style="fill:#27c3de;fill-opacity:1;fill-rule:nonzero;stroke:none"
             d="m 0,0 -4.91,4.978 -6.884,-1.223 3.216,6.208 -3.29,6.169 6.898,-1.141 4.851,5.036 L 0.927,13.114 7.216,10.057 0.964,6.925 0,0 Z" /></g><g
           transform="translate(833.9283,461.5978)"
           id="g4429"><path
             id="path4431"
             style="fill:#e65735;fill-opacity:1;fill-rule:nonzero;stroke:none"
             d="m 0,0 -4.91,4.978 -6.884,-1.223 3.217,6.208 -3.291,6.169 6.898,-1.141 4.851,5.036 L 0.927,13.114 7.216,10.057 0.964,6.925 0,0 Z" /></g><g
           transform="translate(782.7703,705.5978)"
           id="g4433"><path
             id="path4435"
             style="fill:#fccd21;fill-opacity:1;fill-rule:nonzero;stroke:none"
             d="m 0,0 -4.91,4.978 -6.884,-1.223 3.217,6.208 -3.291,6.169 6.898,-1.141 4.851,5.036 L 0.927,13.114 7.216,10.057 0.964,6.925 0,0 Z" /></g><g
           transform="translate(982.6122,497.5978)"
           id="g4437"><path
             id="path4439"
             style="fill:#da5e71;fill-opacity:1;fill-rule:nonzero;stroke:none"
             d="m 0,0 -4.91,4.978 -6.884,-1.223 3.217,6.208 -3.291,6.169 6.898,-1.141 4.851,5.036 L 0.927,13.114 7.216,10.057 0.964,6.925 0,0 Z" /></g><g
           transform="translate(229.3269,428.2783)"
           id="g4441"><path
             id="path4443"
             style="fill:#27c3de;fill-opacity:1;fill-rule:nonzero;stroke:none"
             d="m 0,0 -7.79,7.897 -10.922,-1.94 5.103,9.85 -5.22,9.788 10.944,-1.811 7.696,7.99 1.66,-10.968 9.977,-4.85 L 1.53,10.987 0,0 Z" /></g><g
           transform="translate(297.3269,465.2783)"
           id="g4445"><path
             id="path4447"
             style="fill:#fccd21;fill-opacity:1;fill-rule:nonzero;stroke:none"
             d="m 0,0 -7.79,7.897 -10.922,-1.94 5.103,9.85 -5.22,9.788 10.944,-1.811 7.696,7.99 1.66,-10.968 9.977,-4.85 L 1.53,10.987 0,0 Z" /></g><g
           transform="translate(105.3269,672.2783)"
           id="g4449"><path
             id="path4451"
             style="fill:#00b170;fill-opacity:1;fill-rule:nonzero;stroke:none"
             d="m 0,0 -7.79,7.897 -10.922,-1.94 5.103,9.85 -5.22,9.787 10.944,-1.81 7.696,7.99 1.66,-10.968 9.977,-4.85 L 1.53,10.987 0,0 Z" /></g><g
           transform="translate(282.3269,659.2783)"
           id="g4453"><path
             id="path4455"
             style="fill:#767bca;fill-opacity:1;fill-rule:nonzero;stroke:none"
             d="m 0,0 -7.79,7.897 -10.922,-1.94 5.103,9.85 -5.22,9.787 10.944,-1.81 7.696,7.99 1.66,-10.968 9.977,-4.85 L 1.53,10.987 0,0 Z" /></g><g
           transform="translate(93.9002,570.7201)"
           id="g4457"><path
             id="path4459"
             style="fill:#27c3de;fill-opacity:1;fill-rule:nonzero;stroke:none"
             d="m 0,0 -5.048,5.117 -7.078,-1.257 3.307,6.383 -3.382,6.342 7.092,-1.173 4.986,5.178 L 0.953,13.482 7.418,10.339 0.991,7.12 0,0 Z" /></g><g
           transform="translate(392.4684,677.7201)"
           id="g4461"><path
             id="path4463"
             style="fill:#e65735;fill-opacity:1;fill-rule:nonzero;stroke:none"
             d="m 0,0 -5.048,5.117 -7.078,-1.257 3.307,6.383 -3.382,6.342 7.092,-1.173 4.986,5.178 L 0.953,13.482 7.418,10.339 0.991,7.12 0,0 Z" /></g><g
           transform="translate(410.0365,544.7201)"
           id="g4465"><path
             id="path4467"
             style="fill:#fccd21;fill-opacity:1;fill-rule:nonzero;stroke:none"
             d="m 0,0 -5.048,5.117 -7.078,-1.257 3.307,6.383 -3.382,6.342 7.092,-1.173 4.987,5.178 L 0.953,13.482 7.418,10.339 0.991,7.12 0,0 Z" /></g><g
           transform="translate(208.6047,570.7201)"
           id="g4469"><path
             id="path4471"
             style="fill:#da5e71;fill-opacity:1;fill-rule:nonzero;stroke:none"
             d="m 0,0 -5.048,5.117 -7.078,-1.257 3.307,6.383 -3.382,6.342 7.092,-1.173 4.986,5.178 L 0.953,13.482 7.418,10.339 0.991,7.12 0,0 Z" /></g></g></g><g
       id="g4473"><g
         clip-path="url(#clipPath4477)"
         id="g4475"><g
           transform="translate(570.5449,39.1054)"
           id="g4481"><path
             id="path4483"
             style="fill:#767bca;fill-opacity:1;fill-rule:nonzero;stroke:none"
             d="m 0,0 c 0.54,0 1.037,-0.471 1.037,-0.471 l -8.905,-19.021 c -0.976,0 -3.316,-0.139 -3.888,-0.139 -0.539,0 -1.037,0.471 -1.037,0.471 l -3.045,19.021 c 1.847,0 4.156,0.139 4.848,0.139 0.542,0 1.037,-0.471 1.037,-0.471 l 0.932,-9.305 c 0.08,-0.802 0.086,-1.915 0.053,-3.086 0.3,1.279 0.629,2.49 0.951,3.307 l 3.703,9.418 C -2.673,-0.137 -0.635,0 -0.002,0 L 0,0 Z" /></g><g
           transform="translate(574.6113,27.7313)"
           id="g4485"><path
             id="path4487"
             style="fill:#767bca;fill-opacity:1;fill-rule:nonzero;stroke:none"
             d="m 0,0 c 0.645,0.203 0.838,0.735 0.838,1.344 0,0.573 -0.186,1.429 -0.851,1.429 -1.198,0 -1.725,-1.934 -1.917,-3.384 L 0,0 Z m 5.11,1.99 c 0,-2.071 -1.156,-3.44 -4.037,-4.034 l -3.022,-0.624 c 0.232,-1.303 1.051,-1.939 2.41,-1.939 1.665,0 2.779,1.256 2.779,1.256 0,0 0.85,-0.473 0.85,-1.446 0,-1.725 -2.647,-3.598 -5.725,-3.598 -3.123,0 -5.161,1.974 -5.161,5.306 0,3.85 2.728,9.072 7.582,9.072 2.658,0 4.324,-1.574 4.324,-3.993" /></g><g
           transform="translate(587.8594,33.7147)"
           id="g4489"><path
             id="path4491"
             style="fill:#767bca;fill-opacity:1;fill-rule:nonzero;stroke:none"
             d="m 0,0 c 2.449,0 4.29,-1.298 4.29,-2.983 0,-2.108 -2.552,-2.878 -2.552,-2.878 0,0 -0.748,2.302 -2.464,2.302 -1.162,0 -1.831,-1.176 -1.831,-3.683 0,-2.31 0.608,-3.349 2.102,-3.349 1.533,0 2.476,1.044 2.476,1.044 0,0 0.851,-0.473 0.851,-1.419 0,-1.651 -2.542,-3.412 -5.501,-3.412 -3.151,0 -5.093,1.974 -5.093,5.254 0,3.901 2.789,9.124 7.724,9.124 L 0,0 Z" /></g><g
           transform="translate(599.6279,36.7889)"
           id="g4493"><path
             id="path4495"
             style="fill:#767bca;fill-opacity:1;fill-rule:nonzero;stroke:none"
             d="m 0,0 c 0.59,0 0.983,-0.45 0.983,-0.45 l -0.461,-2.902 3.073,0 -0.694,-2.211 C 2.677,-6.275 2.323,-6.669 1.603,-6.669 l -1.606,0 -0.895,-5.652 c -0.146,-0.914 0.053,-1.337 0.675,-1.344 0.566,-0.004 1.123,0.345 1.123,0.345 0,0 0.858,-0.478 0.858,-1.374 0,-1.384 -1.974,-2.758 -4.471,-2.758 -2.649,0 -3.718,1.621 -3.268,4.457 l 1,6.326 -1.667,0 0.725,2.308 c 0.187,0.591 0.675,1.009 1.273,1.009 l 0.81,0 0.972,2.671 C -1.666,-0.386 -0.546,0 0,0" /></g><g
           transform="translate(609.4395,27.7313)"
           id="g4497"><path
             id="path4499"
             style="fill:#767bca;fill-opacity:1;fill-rule:nonzero;stroke:none"
             d="m 0,0 c 0.644,0.203 0.838,0.735 0.838,1.344 0,0.573 -0.187,1.429 -0.851,1.429 -1.198,0 -1.727,-1.934 -1.917,-3.384 L 0,0 Z m 5.109,1.99 c 0,-2.071 -1.155,-3.44 -4.036,-4.034 L -1.95,-2.668 c 0.233,-1.303 1.052,-1.939 2.409,-1.939 1.665,0 2.78,1.256 2.78,1.256 0,0 0.851,-0.473 0.851,-1.446 0,-1.725 -2.647,-3.598 -5.725,-3.598 -3.124,0 -5.161,1.974 -5.161,5.306 0,3.85 2.727,9.072 7.582,9.072 2.658,0 4.324,-1.574 4.324,-3.993 l -0.001,0 z" /></g><g
           transform="translate(621.7695,27.7313)"
           id="g4501"><path
             id="path4503"
             style="fill:#767bca;fill-opacity:1;fill-rule:nonzero;stroke:none"
             d="m 0,0 c 0.645,0.203 0.838,0.735 0.838,1.344 0,0.573 -0.188,1.429 -0.851,1.429 -1.198,0 -1.727,-1.934 -1.918,-3.384 L 0,0 Z m 5.108,1.99 c 0,-2.071 -1.155,-3.44 -4.035,-4.034 L -1.95,-2.668 c 0.232,-1.303 1.051,-1.939 2.409,-1.939 1.667,0 2.779,1.256 2.779,1.256 0,0 0.852,-0.473 0.852,-1.446 0,-1.725 -2.647,-3.598 -5.725,-3.598 -3.124,0 -5.162,1.974 -5.162,5.306 0,3.85 2.729,9.072 7.582,9.072 2.659,0 4.325,-1.574 4.325,-3.993 l -0.002,0 z" /></g><g
           transform="translate(636.9648,24.5575)"
           id="g4505"><path
             id="path4507"
             style="fill:#767bca;fill-opacity:1;fill-rule:nonzero;stroke:none"
             d="m 0,0 c 0,0 1.039,-0.96 1.039,-2.548 0,-2.118 -1.794,-2.673 -3.297,-2.673 -1.959,0 -3.384,0.934 -4.874,1.438 -0.415,-0.479 -0.822,-0.959 -1.212,-1.438 0,0 -2.208,0.056 -2.208,1.56 0,1.834 3.057,4.979 6.351,8.544 -0.38,0.068 -0.744,0.115 -1.073,0.115 -1.872,0 -2.598,-0.936 -2.598,-0.936 0,0 -0.963,1.108 -0.882,2.549 0.11,1.998 2.01,2.546 3.502,2.546 1.583,0 2.744,-0.611 3.887,-1.112 l 0.928,1.112 c 0,0 2.227,-0.068 2.227,-1.58 0,-1.769 -2.959,-4.858 -6.157,-8.307 0.677,-0.189 1.307,-0.342 1.932,-0.342 C -0.776,-1.072 0,0 0,0" /></g><g
           transform="translate(651.2988,20.5565)"
           id="g4509"><path
             id="path4511"
             style="fill:#767bca;fill-opacity:1;fill-rule:nonzero;stroke:none"
             d="m 0,0 c -0.795,-4.842 -4.113,-7.303 -8.314,-7.303 -2.683,0 -4.685,1.41 -4.685,3.042 0,1.077 0.897,1.577 0.897,1.577 0,0 0.912,-0.831 2.71,-0.831 1.686,0 3.972,0.719 4.374,3.264 l 0.315,1.981 c -1.132,-1.628 -2.634,-2.95 -4.53,-2.95 -2.132,0 -3.081,1.744 -2.52,5.288 l 0.607,3.836 c 0.373,2.35 0.475,4.267 0.475,4.267 1.517,0.28 3.517,0.987 4.217,0.987 0.542,0 1.045,-0.452 1.045,-0.452 L -6.169,7.904 -6.871,3.475 c -0.064,-0.409 0.013,-0.638 0.383,-0.638 1.766,0 2.762,5.067 2.762,5.067 0.372,2.35 0.475,4.267 0.475,4.267 1.515,0.28 3.516,0.987 4.216,0.987 0.543,0 1.046,-0.452 1.046,-0.452 L 1.25,7.904 0,0 Z" /></g><g
           transform="translate(449.1533,30.7587)"
           id="g4513"><path
             id="path4515"
             style="fill:#767bca;fill-opacity:1;fill-rule:nonzero;stroke:none"
             d="m 0,0 0,-8.534 1.942,0 c 0.727,0 1.251,0.041 1.574,0.123 0.422,0.105 0.772,0.284 1.05,0.536 0.278,0.252 0.505,0.666 0.681,1.244 0.176,0.576 0.264,1.363 0.264,2.36 0,0.996 -0.088,1.76 -0.264,2.293 C 5.071,-1.444 4.825,-1.028 4.509,-0.73 4.192,-0.431 3.791,-0.229 3.305,-0.123 2.941,-0.041 2.229,0 1.169,0 L 0,0 Z m -2.602,2.18 4.755,0 C 3.226,2.18 4.043,2.098 4.605,1.934 5.361,1.711 6.009,1.315 6.548,0.747 7.087,0.179 7.497,-0.518 7.778,-1.34 8.06,-2.164 8.2,-3.179 8.2,-4.386 8.2,-5.446 8.068,-6.36 7.805,-7.128 7.482,-8.066 7.022,-8.824 6.425,-9.404 5.974,-9.844 5.364,-10.187 4.597,-10.433 4.022,-10.614 3.255,-10.705 2.294,-10.705 l -4.896,0 0,12.885 z" /></g><g
           transform="translate(464.728,25.5204)"
           id="g4517"><path
             id="path4519"
             style="fill:#767bca;fill-opacity:1;fill-rule:nonzero;stroke:none"
             d="M 0,0 C -0.018,0.715 -0.202,1.258 -0.554,1.631 -0.905,2.002 -1.333,2.189 -1.837,2.189 -2.376,2.189 -2.821,1.992 -3.173,1.6 -3.524,1.207 -3.697,0.674 -3.691,0 L 0,0 Z M -0.141,-2.496 2.32,-2.909 C 2.004,-3.811 1.504,-4.499 0.822,-4.971 0.139,-5.442 -0.715,-5.678 -1.74,-5.678 c -1.623,0 -2.824,0.531 -3.604,1.591 -0.615,0.85 -0.923,1.922 -0.923,3.217 0,1.547 0.405,2.758 1.213,3.634 0.809,0.876 1.831,1.314 3.068,1.314 1.388,0 2.484,-0.459 3.287,-1.375 0.802,-0.918 1.186,-2.322 1.151,-4.215 l -6.187,0 c 0.017,-0.732 0.217,-1.302 0.597,-1.709 0.381,-0.408 0.856,-0.611 1.424,-0.611 0.387,0 0.712,0.105 0.976,0.316 0.263,0.211 0.463,0.551 0.597,1.02" /></g><g
           transform="translate(467.9624,22.7167)"
           id="g4521"><path
             id="path4523"
             style="fill:#767bca;fill-opacity:1;fill-rule:nonzero;stroke:none"
             d="m 0,0 2.478,0.378 c 0.106,-0.481 0.32,-0.846 0.642,-1.094 0.322,-0.25 0.774,-0.374 1.354,-0.374 0.638,0 1.119,0.117 1.441,0.352 0.217,0.164 0.325,0.384 0.325,0.659 0,0.187 -0.058,0.343 -0.176,0.466 C 5.941,0.504 5.666,0.612 5.238,0.712 3.246,1.151 1.983,1.553 1.45,1.916 0.712,2.42 0.343,3.12 0.343,4.017 c 0,0.808 0.319,1.488 0.958,2.039 0.638,0.55 1.629,0.826 2.97,0.826 1.278,0 2.227,-0.208 2.848,-0.624 C 7.74,5.842 8.168,5.227 8.402,4.412 L 6.073,3.981 C 5.974,4.345 5.785,4.623 5.506,4.816 5.228,5.01 4.831,5.106 4.315,5.106 3.665,5.106 3.199,5.016 2.918,4.834 2.73,4.705 2.637,4.538 2.637,4.333 2.637,4.157 2.719,4.008 2.883,3.885 3.105,3.721 3.874,3.489 5.19,3.19 6.505,2.892 7.424,2.525 7.945,2.092 8.461,1.652 8.719,1.04 8.719,0.255 8.719,-0.601 8.361,-1.336 7.646,-1.951 6.932,-2.566 5.874,-2.874 4.474,-2.874 3.202,-2.874 2.196,-2.616 1.455,-2.101 0.713,-1.585 0.228,-0.885 0,0" /></g><path
           id="path4525"
           style="fill:#767bca;fill-opacity:1;fill-rule:nonzero;stroke:none"
           d="m 478.483,29.388 2.47,0 0,-9.334 -2.47,0 0,9.334 z m 0,3.55 2.47,0 0,-2.285 -2.47,0 0,2.285 z" /><g
           transform="translate(485.1021,24.9139)"
           id="g4527"><path
             id="path4529"
             style="fill:#767bca;fill-opacity:1;fill-rule:nonzero;stroke:none"
             d="m 0,0 c 0,-0.99 0.192,-1.716 0.576,-2.175 0.383,-0.461 0.857,-0.69 1.419,-0.69 0.604,0 1.113,0.235 1.529,0.708 0.416,0.47 0.624,1.17 0.624,2.095 0,0.967 -0.199,1.685 -0.597,2.154 C 3.152,2.561 2.648,2.795 2.039,2.795 1.447,2.795 0.959,2.564 0.576,2.104 0.192,1.645 0,0.943 0,0 m -2.206,-5.476 2.821,-0.342 c 0.047,-0.328 0.156,-0.554 0.325,-0.677 0.235,-0.176 0.604,-0.264 1.108,-0.264 0.644,0 1.128,0.097 1.45,0.29 0.217,0.129 0.381,0.337 0.492,0.624 0.076,0.205 0.114,0.583 0.114,1.134 l 0,1.362 C 3.366,-4.356 2.435,-4.86 1.31,-4.86 c -1.254,0 -2.247,0.53 -2.98,1.59 -0.574,0.838 -0.861,1.881 -0.861,3.129 0,1.565 0.376,2.76 1.129,3.586 0.753,0.826 1.689,1.24 2.808,1.24 1.155,0 2.107,-0.507 2.857,-1.521 l 0,1.31 2.311,0 0,-8.376 c 0,-1.102 -0.091,-1.925 -0.272,-2.47 C 6.12,-6.917 5.865,-7.345 5.537,-7.655 5.209,-7.966 4.771,-8.209 4.223,-8.385 3.675,-8.561 2.982,-8.648 2.145,-8.648 c -1.583,0 -2.705,0.271 -3.367,0.813 -0.662,0.542 -0.993,1.229 -0.993,2.061 0,0.082 0.003,0.181 0.009,0.298" /></g><g
           transform="translate(502.25,20.0536)"
           id="g4531"><path
             id="path4533"
             style="fill:#767bca;fill-opacity:1;fill-rule:nonzero;stroke:none"
             d="m 0,0 -2.47,0 0,4.764 c 0,1.007 -0.053,1.659 -0.158,1.955 -0.105,0.296 -0.277,0.526 -0.514,0.69 -0.237,0.164 -0.523,0.246 -0.857,0.246 -0.428,0 -0.812,-0.117 -1.151,-0.351 C -5.49,7.069 -5.723,6.759 -5.849,6.372 -5.975,5.985 -6.038,5.271 -6.038,4.228 l 0,-4.228 -2.47,0 0,9.334 2.294,0 0,-1.371 c 0.815,1.055 1.84,1.582 3.076,1.582 0.545,0 1.043,-0.099 1.494,-0.295 C -1.192,9.054 -0.851,8.804 -0.62,8.499 -0.388,8.194 -0.227,7.849 -0.136,7.462 -0.045,7.075 0,6.521 0,5.801 L 0,0 Z" /></g><g
           transform="translate(509.9404,25.5204)"
           id="g4535"><path
             id="path4537"
             style="fill:#767bca;fill-opacity:1;fill-rule:nonzero;stroke:none"
             d="M 0,0 C -0.018,0.715 -0.202,1.258 -0.554,1.631 -0.905,2.002 -1.333,2.189 -1.837,2.189 -2.376,2.189 -2.821,1.992 -3.173,1.6 -3.524,1.207 -3.697,0.674 -3.691,0 L 0,0 Z M -0.141,-2.496 2.32,-2.909 C 2.004,-3.811 1.504,-4.499 0.822,-4.971 0.139,-5.442 -0.715,-5.678 -1.74,-5.678 c -1.623,0 -2.824,0.531 -3.604,1.591 -0.615,0.85 -0.923,1.922 -0.923,3.217 0,1.547 0.405,2.758 1.213,3.634 0.809,0.876 1.831,1.314 3.068,1.314 1.388,0 2.484,-0.459 3.287,-1.375 0.802,-0.918 1.186,-2.322 1.151,-4.215 l -6.187,0 c 0.017,-0.732 0.216,-1.302 0.597,-1.709 0.381,-0.408 0.856,-0.611 1.424,-0.611 0.387,0 0.712,0.105 0.976,0.316 0.263,0.211 0.463,0.551 0.597,1.02" /></g><g
           transform="translate(516.0142,24.9227)"
           id="g4539"><path
             id="path4541"
             style="fill:#767bca;fill-opacity:1;fill-rule:nonzero;stroke:none"
             d="m 0,0 c 0,-0.996 0.138,-1.717 0.413,-2.162 0.399,-0.645 0.955,-0.967 1.67,-0.967 0.568,0 1.052,0.242 1.45,0.725 0.399,0.484 0.598,1.206 0.598,2.167 0,1.072 -0.193,1.843 -0.58,2.315 C 3.164,2.55 2.669,2.786 2.065,2.786 1.48,2.786 0.989,2.553 0.593,2.088 0.198,1.621 0,0.926 0,0 m 6.592,-4.869 -2.294,0 0,1.371 C 3.917,-4.031 3.467,-4.429 2.949,-4.689 2.43,-4.949 1.907,-5.08 1.38,-5.08 c -1.072,0 -1.991,0.432 -2.755,1.297 -0.765,0.863 -1.147,2.069 -1.147,3.616 0,1.582 0.372,2.784 1.116,3.608 0.744,0.823 1.684,1.235 2.821,1.235 1.043,0 1.945,-0.434 2.707,-1.301 l 0,4.641 2.47,0 0,-12.885 z" /></g><g
           transform="translate(531.668,24.9227)"
           id="g4543"><path
             id="path4545"
             style="fill:#767bca;fill-opacity:1;fill-rule:nonzero;stroke:none"
             d="m 0,0 c 0,-0.967 0.152,-1.682 0.457,-2.145 0.428,-0.656 0.996,-0.984 1.705,-0.984 0.545,0 1.009,0.233 1.393,0.699 0.384,0.465 0.576,1.2 0.576,2.201 0,1.067 -0.194,1.835 -0.58,2.307 C 3.164,2.55 2.669,2.786 2.065,2.786 1.474,2.786 0.981,2.556 0.589,2.096 0.196,1.636 0,0.937 0,0 m -2.452,-4.869 0,12.885 2.469,0 0,-4.641 C 0.779,4.242 1.682,4.676 2.725,4.676 3.861,4.676 4.802,4.264 5.546,3.441 6.29,2.617 6.662,1.436 6.662,-0.105 6.662,-1.699 6.283,-2.927 5.524,-3.788 4.765,-4.649 3.844,-5.08 2.76,-5.08 c -0.534,0 -1.059,0.134 -1.578,0.4 -0.519,0.266 -0.965,0.66 -1.34,1.182 l 0,-1.371 -2.294,0 z" /></g><g
           transform="translate(538.7876,29.3876)"
           id="g4547"><path
             id="path4549"
             style="fill:#767bca;fill-opacity:1;fill-rule:nonzero;stroke:none"
             d="M 0,0 2.628,0 4.86,-6.627 7.04,0 9.598,0 6.302,-8.982 5.713,-10.608 c -0.217,-0.545 -0.424,-0.961 -0.62,-1.248 -0.196,-0.288 -0.422,-0.52 -0.676,-0.699 -0.255,-0.178 -0.569,-0.318 -0.941,-0.418 -0.372,-0.099 -0.792,-0.149 -1.261,-0.149 -0.475,0 -0.941,0.05 -1.398,0.149 l -0.219,1.934 c 0.386,-0.076 0.735,-0.114 1.046,-0.114 0.574,0 0.999,0.169 1.274,0.505 0.275,0.337 0.486,0.766 0.633,1.288 L 0,0 Z" /></g></g></g></g></svg>